<svg xmlns="http://www.w3.org/2000/svg" xmlns:xlink="http://www.w3.org/1999/xlink" width="500" zoomAndPan="magnify" viewBox="0 0 375 374.999991" height="500" preserveAspectRatio="xMidYMid meet" version="1.0"><defs><g/><clipPath id="dddcd25079"><path d="M 37.5 37.5 L 337.5 37.5 L 337.5 337.5 L 37.5 337.5 Z M 37.5 37.5 " clip-rule="nonzero"/></clipPath><clipPath id="4c03c78263"><path d="M 187.488281 37.5 C 104.648438 37.5 37.5 104.648438 37.5 187.488281 C 37.5 270.324219 104.648438 337.472656 187.488281 337.472656 L 337.472656 337.472656 L 337.472656 187.488281 C 337.5 104.648438 270.324219 37.5 187.488281 37.5 Z M 187.488281 37.5 " clip-rule="nonzero"/></clipPath><clipPath id="4372eb88a7"><path d="M 0.5 0.5 L 300.5 0.5 L 300.5 300.5 L 0.5 300.5 Z M 0.5 0.5 " clip-rule="nonzero"/></clipPath><clipPath id="f04a020698"><path d="M 150.488281 0.5 C 67.648438 0.5 0.5 67.648438 0.5 150.488281 C 0.5 233.324219 67.648438 300.472656 150.488281 300.472656 L 300.472656 300.472656 L 300.472656 150.488281 C 300.5 67.648438 233.324219 0.5 150.488281 0.5 Z M 150.488281 0.5 " clip-rule="nonzero"/></clipPath><clipPath id="49a7fe6a4c"><rect x="0" width="301" y="0" height="301"/></clipPath><clipPath id="924a30676a"><rect x="0" width="188" y="0" height="296"/></clipPath></defs><g clip-path="url(#dddcd25079)"><g clip-path="url(#4c03c78263)"><g transform="matrix(1, 0, 0, 1, 37, 37)"><g clip-path="url(#49a7fe6a4c)"><g clip-path="url(#4372eb88a7)"><g clip-path="url(#f04a020698)"><path fill="#5170ff" d="M 0.5 0.5 L 300.5 0.5 L 300.5 300.5 L 0.5 300.5 Z M 0.5 0.5 " fill-opacity="1" fill-rule="nonzero"/></g></g></g></g></g></g><g transform="matrix(1, 0, 0, 1, 113, 73)"><g clip-path="url(#924a30676a)"><g fill="#ffffff" fill-opacity="1"><g transform="translate(0.816849, 211.607673)"><g><path d="M 14.03125 -192.984375 L 69.9375 -192.984375 C 96.757812 -192.984375 119.679688 -183.820312 138.703125 -165.5 C 157.734375 -147.175781 167.25 -124.210938 167.25 -96.609375 C 167.25 -68.847656 157.773438 -45.804688 138.828125 -27.484375 C 119.878906 -9.160156 96.914062 0 69.9375 0 L 14.03125 0 Z M 58.015625 -39.296875 L 64.796875 -39.296875 C 80.859375 -39.296875 93.992188 -44.710938 104.203125 -55.546875 C 114.421875 -66.390625 119.609375 -80 119.765625 -96.375 C 119.765625 -112.75 114.65625 -126.394531 104.4375 -137.3125 C 94.226562 -148.226562 81.015625 -153.6875 64.796875 -153.6875 L 58.015625 -153.6875 Z M 58.015625 -39.296875 "/></g></g></g></g></g></svg>